<!-- Favicon SVG for browser tab -->
<svg width="32" height="32" viewBox="0 0 32 32" xmlns="http://www.w3.org/2000/svg">
  <!-- Background -->
  <rect width="32" height="32" fill="#000000"/>
  
  <!-- Simplified hexagon logo for favicon -->
  <g transform="translate(8, 6)">
    <!-- Main hexagon -->
    <polygon points="8,2 12,4 12,8 8,10 4,8 4,4" fill="#FFFF00"/>
    <!-- Small hexagon -->
    <polygon points="12,6 14,7 14,9 12,10 10,9 10,7" fill="#FFFF00"/>
  </g>
  
  <!-- Bottom hexagon -->
  <g transform="translate(12, 18)">
    <polygon points="4,1 6,2 6,4 4,5 2,4 2,2" fill="#FFFF00"/>
  </g>
  
  <!-- Small decorative hexagons -->
  <polygon points="20,8 21,8.5 21,9.5 20,10 19,9.5 19,8.5" fill="#FFFF00"/>
  <polygon points="6,20 7,20.5 7,21.5 6,22 5,21.5 5,20.5" fill="#FFFF00"/>
</svg>